# xmcd CD database file
#
# Track frame offsets:
#	150
#	14755
#	30805
#	46537
#	67513
#
# Disc length: 1119 seconds
#
# Revision: 1
# Processed by: cddbd v1.5.2PL0 Copyright (c) Steve Scherf et al.
# Submitted via: CDex 1.70beta2
#
DISCID=28045d05
DTITLE=Dizzy Birds - Meschiya Lake, Russell Welch and the Dizzy Birds
DYEAR=2015
DGENRE=Jazz
TTITLE0=Swing it, brother, swing!
TTITLE1=Marie
TTITLE2=Running Wild
TTITLE3=J'attendrai
TTITLE4=I get the blues when it rains
EXTD=YEAR: 2015
EXTT0=
EXTT1=
EXTT2=
EXTT3=
EXTT4=
PLAYORDER=
